<?xml version="1.0" standalone="no"?>
<!DOCTYPE svg PUBLIC "-//W3C//DTD SVG 20010904//EN"
 "http://www.w3.org/TR/2001/REC-SVG-20010904/DTD/svg10.dtd">
<svg version="1.0" xmlns="http://www.w3.org/2000/svg"
 width="225.000000pt" height="225.000000pt" viewBox="0 0 225.000000 225.000000"
 preserveAspectRatio="xMidYMid meet">
<metadata>
Created by potrace 1.14, written by Peter Selinger 2001-2017
</metadata>
<g transform="translate(0.000000,225.000000) scale(0.100000,-0.100000)"
fill="#000000" stroke="none">
<path d="M1095 2229 c-141 -8 -196 -18 -295 -53 -36 -13 -71 -21 -79 -18 -8 2
-11 0 -7 -6 8 -13 -19 -23 -41 -15 -10 3 -15 3 -11 -2 5 -5 -29 -30 -75 -58
-45 -27 -89 -55 -98 -63 -9 -8 -19 -11 -24 -7 -4 5 -5 3 -2 -4 8 -13 -41 -56
-54 -47 -5 3 -8 2 -7 -3 2 -5 -12 -26 -31 -48 -18 -22 -30 -33 -25 -25 7 13 5
13 -9 1 -9 -7 -15 -17 -12 -21 3 -4 -2 -13 -10 -20 -11 -9 -18 -10 -28 -1 -18
14 -30 2 -16 -16 8 -9 8 -17 0 -26 -6 -8 -7 -18 -3 -22 4 -5 2 -5 -4 -2 -12 7
-38 -17 -40 -37 -4 -43 -4 -42 -15 -26 -8 12 -10 9 -6 -12 2 -17 0 -25 -8 -22
-12 5 -35 -36 -35 -60 0 -8 -6 -16 -14 -19 -8 -3 -17 -21 -21 -39 -4 -18 -11
-37 -15 -43 -4 -5 -13 -37 -20 -70 -6 -33 -16 -68 -21 -77 -25 -49 -46 -273
-31 -328 6 -19 15 -69 21 -110 14 -91 44 -193 60 -198 6 -2 11 -12 11 -23 0
-17 27 -81 51 -119 5 -8 13 -25 19 -38 5 -12 17 -25 25 -28 8 -4 15 -15 15
-26 0 -23 200 -225 260 -263 21 -13 41 -29 45 -35 3 -6 11 -8 16 -5 5 4 12 -1
15 -9 3 -9 12 -16 20 -16 8 0 31 -11 52 -24 21 -13 52 -27 70 -30 17 -4 34
-12 37 -17 4 -5 16 -9 28 -9 13 0 31 -6 42 -14 31 -22 97 -28 285 -30 170 -1
303 13 325 35 5 5 19 9 31 9 12 0 51 13 86 30 34 16 69 30 76 30 6 0 12 4 12
9 0 5 10 13 23 17 12 4 34 16 49 28 14 11 39 31 55 43 15 13 33 23 39 23 7 0
14 7 18 15 3 8 11 15 18 15 15 0 68 56 68 71 0 5 7 9 15 9 9 0 19 8 22 18 4 9
15 23 25 30 10 7 18 19 18 27 0 7 19 34 42 60 23 26 43 54 44 62 2 8 10 23 18
32 9 10 16 27 16 38 0 11 7 26 15 33 8 7 15 21 15 31 0 11 3 19 8 19 4 0 8 17
10 37 1 20 6 39 11 43 5 3 14 32 21 65 7 33 16 83 22 110 6 28 8 82 4 121 -3
40 -1 75 4 80 6 6 6 22 0 44 -6 19 -10 56 -10 81 0 26 -7 60 -15 75 -8 16 -15
37 -15 47 0 9 -4 17 -9 17 -5 0 -11 10 -14 23 -2 12 -8 31 -12 42 -6 17 -5 18
5 5 10 -13 11 -12 6 3 -3 10 -6 26 -6 35 0 13 -2 14 -9 4 -6 -10 -10 -6 -14
15 -7 34 -50 99 -64 96 -6 -1 -9 6 -6 17 3 11 10 17 17 13 6 -4 5 0 -2 9 -7 9
-22 15 -33 13 -17 -4 -21 1 -18 23 1 4 5 6 11 4 5 -1 6 2 3 8 -4 6 -13 9 -21
6 -8 -3 -14 0 -14 6 0 6 -8 20 -17 31 -10 11 -13 18 -7 14 15 -9 13 25 -2 40
-17 18 -29 16 -15 -1 7 -8 8 -17 3 -20 -6 -3 -17 5 -26 19 -10 15 -12 25 -6
25 6 0 8 5 5 10 -4 6 -9 9 -13 6 -4 -2 -16 0 -27 4 -19 8 -19 8 5 19 l25 11
-26 -5 c-28 -5 -66 24 -52 40 5 4 3 5 -3 2 -6 -3 -21 1 -33 10 -18 12 -20 17
-10 25 11 8 11 9 -1 5 -21 -6 -52 12 -44 25 4 6 3 8 -4 4 -6 -3 -25 9 -43 26
-18 18 -29 27 -25 20 7 -11 4 -11 -12 -1 -12 7 -18 17 -15 23 3 5 1 6 -4 3
-10 -6 -71 18 -83 32 -3 3 -14 8 -25 9 -11 2 -22 8 -23 13 -2 5 -8 7 -13 3 -5
-3 -9 0 -9 6 0 6 -3 9 -8 7 -4 -3 -48 6 -97 19 -50 13 -105 24 -122 24 -18 0
-33 5 -33 10 0 6 -3 9 -7 8 -5 0 -66 -4 -138 -9z m-804 -406 c13 -16 12 -17
-3 -4 -10 7 -18 15 -18 17 0 8 8 3 21 -13z"/>
<path d="M1597 2139 c7 -7 15 -10 18 -7 3 3 -2 9 -12 12 -14 6 -15 5 -6 -5z"/>
<path d="M405 1991 c-3 -5 -2 -12 3 -15 5 -3 9 1 9 9 0 17 -3 19 -12 6z"/>
<path d="M1860 1951 c0 -5 5 -13 10 -16 6 -3 10 -2 10 4 0 5 -4 13 -10 16 -5
3 -10 2 -10 -4z"/>
<path d="M336 1922 c-3 -5 1 -9 9 -9 8 0 12 4 9 9 -3 4 -7 8 -9 8 -2 0 -6 -4
-9 -8z"/>
<path d="M2060 1750 c6 -11 13 -20 16 -20 2 0 0 9 -6 20 -6 11 -13 20 -16 20
-2 0 0 -9 6 -20z"/>
</g>
</svg>
